<?xml version="1.0" encoding="utf-8"?>
<!-- Generator: Adobe Illustrator 16.0.0, SVG Export Plug-In . SVG Version: 6.00 Build 0)  -->
<!DOCTYPE svg PUBLIC "-//W3C//DTD SVG 1.1//EN" "http://www.w3.org/Graphics/SVG/1.1/DTD/svg11.dtd">
<svg version="1.1" id="Layer_1" xmlns="http://www.w3.org/2000/svg" xmlns:xlink="http://www.w3.org/1999/xlink" x="0px" y="0px"
	 width="612px" height="792px" viewBox="0 0 612 792" enable-background="new 0 0 612 792" xml:space="preserve">
<g transform="matrix(15 0 0 15 -524 -3284)">
	<path fill="#73C0D8" d="M74.458,245.333c0-5.738-3.833-9.562-7.657-9.562c-3.858,0-5.31,1.935-8.965,4.109
		c-3.783-0.277-8.912-0.299-15.875-0.299c4.141,1.242,7.327,2.242,9.675,3.063c-3.568,1.152-8.412,2.15-15.427,2.689
		c7.015,0.54,11.859,1.537,15.427,2.689c-2.348,0.821-5.534,1.821-9.675,3.063c7.006,0,12.161-0.017,15.95-0.299
		c3.616,2.162,5.051,4.109,8.89,4.109C70.626,254.896,74.458,251.071,74.458,245.333L74.458,245.333z M70.648,245.333
		c0,3.169-2.141,5.752-4.781,5.752c-1.044,0-2.015-0.44-2.802-1.121c2.686-0.804,3.735-2.183,3.735-4.632
		c0-2.449-1.049-3.827-3.735-4.632c0.786-0.681,1.758-1.121,2.802-1.121C68.507,239.581,70.648,242.164,70.648,245.333z"/>
</g>
</svg>
