<?xml version="1.0" encoding="utf-8"?>
<!-- Generator: Adobe Illustrator 16.0.0, SVG Export Plug-In . SVG Version: 6.00 Build 0)  -->
<!DOCTYPE svg PUBLIC "-//W3C//DTD SVG 1.1//EN" "http://www.w3.org/Graphics/SVG/1.1/DTD/svg11.dtd">
<svg version="1.1" id="Layer_1" xmlns="http://www.w3.org/2000/svg" xmlns:xlink="http://www.w3.org/1999/xlink" x="0px" y="0px"
	 width="55.611px" height="27.805px" viewBox="0 0 55.611 27.805" enable-background="new 0 0 55.611 27.805" xml:space="preserve">
<g transform="matrix(15 0 0 15 -524 -3284)">
	<path fill="#73C0D8" d="M38.641,219.86c0-0.556-0.372-0.927-0.742-0.927c-0.374,0-0.515,0.188-0.869,0.398
		c-0.367-0.027-0.864-0.029-1.539-0.029c0.401,0.12,0.71,0.217,0.938,0.297c-0.346,0.112-0.815,0.208-1.495,0.261
		c0.68,0.052,1.149,0.149,1.495,0.261c-0.228,0.08-0.536,0.177-0.938,0.297c0.679,0,1.179-0.002,1.546-0.029
		c0.35,0.21,0.49,0.398,0.862,0.398C38.269,220.787,38.641,220.416,38.641,219.86L38.641,219.86z M38.271,219.86
		c0,0.307-0.208,0.558-0.463,0.558c-0.101,0-0.195-0.043-0.272-0.109c0.26-0.078,0.362-0.212,0.362-0.449
		c0-0.237-0.102-0.371-0.362-0.449c0.076-0.066,0.17-0.109,0.272-0.109C38.064,219.303,38.271,219.553,38.271,219.86z"/>
</g>
</svg>
