<?xml version="1.0" encoding="utf-8"?>
<!-- Generator: Adobe Illustrator 16.0.0, SVG Export Plug-In . SVG Version: 6.00 Build 0)  -->
<!DOCTYPE svg PUBLIC "-//W3C//DTD SVG 1.1//EN" "http://www.w3.org/Graphics/SVG/1.1/DTD/svg11.dtd">
<svg width="40px" height="50px" viewBox="147 274 322 431" version="1.1" xmlns="http://www.w3.org/2000/svg" xmlns:xlink="http://www.w3.org/1999/xlink">
    <!-- Generator: Sketch 41.2 (35397) - http://www.bohemiancoding.com/sketch -->
    <defs></defs>
    <g id="Group" stroke="none" stroke-width="1" fill="none" fill-rule="evenodd" transform="translate(151.122750, 274.479350)">
        <path d="M304.792051,194.267789 C304.792051,316.322905 237.625295,415.391068 154.890951,415.391068 C72.1379188,415.391068 4.98985086,316.322905 4.98985086,194.267789 C4.98985086,100.338986 72.1566074,17.5672652 154.890951,17.5672652 C237.625295,17.5672652 304.792051,97.3675018 304.792051,194.267789 Z" id="Shape" stroke="#331816" stroke-width="17.3243137" fill="#70593F"></path>
        <path d="M275.338849,141.024025 C275.338849,194.492052 221.665247,237.868246 155.526363,237.868246 C89.3874781,237.868246 35.7138764,194.473363 35.7138764,141.024025 C35.7138764,87.5559973 89.3874781,30.8174684 155.526363,30.8174684 C221.665247,30.8174684 275.338849,87.5559973 275.338849,141.024025 Z" id="Shape" stroke="#70593F" stroke-width="18.68858" fill="#331816"></path>
        <polyline id="Shape" stroke="#70593F" stroke-width="18.68858" fill="#331816" points="37.022077 140.725007 97.0497959 140.725007 108.655404 98.5261938 129.567925 174.626092 145.359775 117.177397 151.919467 141.061402 273.48868 141.061402"></polyline>
    </g>
</svg>
