<?xml version="1.0" encoding="utf-8"?>
<!-- Generator: Adobe Illustrator 16.0.0, SVG Export Plug-In . SVG Version: 6.00 Build 0)  -->
<!DOCTYPE svg PUBLIC "-//W3C//DTD SVG 1.1//EN" "http://www.w3.org/Graphics/SVG/1.1/DTD/svg11.dtd">
<svg version="1.1" id="Layer_1" xmlns="http://www.w3.org/2000/svg" xmlns:xlink="http://www.w3.org/1999/xlink" x="0px" y="0px"
	 width="69.678px" height="49.852px" viewBox="3.081 -1.077 69.678 49.852" enable-background="new 3.081 -1.077 69.678 49.852"
	 xml:space="preserve">
<g transform="matrix(18.68858,0,0,18.68858,4525.84296,-1586.73402)">
	<path fill="#EE2F25" d="M-239.57,84.846c0.063,0.175,0.056,0.327-0.013,0.549c-0.294-0.221-0.855-0.562-1.246-0.355
		c0.308,0.081,0.566,0.361,0.629,0.666c-0.46-0.2-1.275-0.023-1.807,0.452c0.512-0.132,1.02-0.119,1.296,0.132
		c-0.229,0.235-0.405,0.271-0.713,0.237c0.516,0.351,0.928,0.412,1.199,0.26c0.023,0.228-0.142,0.426-0.337,0.573
		c0.325-0.009,0.774-0.113,1.09-0.3c-0.008,0.151-0.066,0.295-0.181,0.453C-237.866,86.792-237.804,85.761-239.57,84.846
		L-239.57,84.846z"/>
	<path fill="#F05657" stroke="#FFFFFF" stroke-width="0.867" d="M-238.983,85.589c0.363,0.033,0.63,0.354,0.597,0.716
		c-0.033,0.363-0.354,0.63-0.716,0.597c-0.363-0.033-0.63-0.354-0.597-0.716C-239.667,85.823-239.346,85.556-238.983,85.589z"/>
</g>
</svg>
