<?xml version="1.0" encoding="utf-8"?>
<!-- Generator: Adobe Illustrator 16.0.0, SVG Export Plug-In . SVG Version: 6.00 Build 0)  -->
<!DOCTYPE svg PUBLIC "-//W3C//DTD SVG 1.1//EN" "http://www.w3.org/Graphics/SVG/1.1/DTD/svg11.dtd">
<svg version="1.1" id="Layer_1" xmlns="http://www.w3.org/2000/svg" xmlns:xlink="http://www.w3.org/1999/xlink" x="0px" y="0px"
	 width="59.49px" height="59.611px" viewBox="0 0 59.49 59.611" enable-background="new 0 0 59.49 59.611" xml:space="preserve">
<path fill="#EF3A24" d="M28.388,0c4.25,6.05-2.917,39.728-11.192,16.945C11.253,38.371,2.846,39.289,2.835,29.378
	c-8.874,9.83,5.431,27.362,10.829,30.233h6.46c-5.691-4.959-9.516-9.667-10.185-16.852c5.863,1.167,8.906,2.598,10.072-7.69
	c7.527,10.732,12.511-6.119,17.002-13.276c-0.205,4.997-0.415,11.583,2.832,16.098c1.083,1.504,4.119,1.997,6.784,1.959
	c-1.229,1.993-5.558,8.598-2.108,11.055c3.451,2.457,4.099-0.047,3.205,2.005c-1.644,2.588-2.85,4.88-7.321,6.701h6.949
	c7.367-2.32,13.857-11.361,11.725-16.798c-2.729,2.312-5.425,3.83-7.597,3.661c6.088-8.933,4.69-18.083,1.828-27.433
	c-2.507,8.971-4.15,10.224-6.764,12.334C50.154,22.866,35.958,4.797,28.388,0L28.388,0z"/>
</svg>
