<?xml version="1.0" encoding="utf-8"?>
<!-- Generator: Adobe Illustrator 16.0.0, SVG Export Plug-In . SVG Version: 6.00 Build 0)  -->
<!DOCTYPE svg PUBLIC "-//W3C//DTD SVG 1.1//EN" "http://www.w3.org/Graphics/SVG/1.1/DTD/svg11.dtd">
<svg version="1.1" id="Layer_1" xmlns="http://www.w3.org/2000/svg" xmlns:xlink="http://www.w3.org/1999/xlink" x="0px" y="0px"
	 width="40.181px" height="39.794px" viewBox="0 0 40.181 39.794" enable-background="new 0 0 40.181 39.794" xml:space="preserve">
<g transform="matrix(18.68858,0,0,18.68858,-6362.49306,-38782.5841)">
	<g>
		<path fill="#EE3326" d="M342.584,2076.528c-0.106,0.45-0.889,0.576-1.021,0.804c0-0.287-0.594-0.737-0.484-1.207
			c0.106-0.451,0.683-0.4,0.799,0.032C342.202,2075.832,342.688,2076.084,342.584,2076.528L342.584,2076.528z"/>
		<path fill="#F16062" d="M340.456,2075.57c0.054,0.23,0.454,0.294,0.521,0.411c0-0.147,0.303-0.376,0.247-0.616
			c-0.054-0.23-0.349-0.204-0.408,0.016C340.65,2075.215,340.402,2075.344,340.456,2075.57z"/>
	</g>
</g>
</svg>
