<svg width="731px" height="730px" viewBox="2 243 731 730" version="1.1" xmlns="http://www.w3.org/2000/svg" xmlns:xlink="http://www.w3.org/1999/xlink">
    <defs></defs>
    <g id="stab" stroke="none" stroke-width="1" fill="none" fill-rule="evenodd" transform="translate(367.500000, 608.000000) rotate(-45.000000) translate(-367.500000, -608.000000) translate(105.000000, 355.000000)">
        <g id="Group">
            <g transform="translate(0.933920, 0.487850)" id="Shape">
                <path d="M244.029871,124.705157 C350.560384,231.230063 443.99207,369.807752 506.428747,501.244535 C374.027634,438.34625 236.425488,345.381778 129.8875,238.84379 L244.029871,124.705157 Z" fill="#943636"></path>
                <path d="M90.7443478,51.56662 C90.7443478,71.5274728 74.5602299,87.7076246 54.5988423,87.7076246 C34.6374547,87.7076246 18.4533369,71.5274728 18.4533369,51.56662 C18.4533369,31.6057673 34.6374547,15.4236647 54.5988423,15.4236647 C74.5602299,15.4236647 90.7443478,31.6057673 90.7443478,51.56662 Z" stroke="#331816" stroke-width="15.6563544" fill="#EFEFEF"></path>
                <path d="M198.368064,167.879514 L172.252642,193.991198 C121.257114,170.402472 80.3403366,136.734996 60.3715888,82.125096 L86.4870105,56.0115431 C135.322139,77.6379679 172.611463,116.835396 198.368064,167.879514 Z" stroke="#331816" stroke-width="18.68858" fill="#EFEFEF"></path>
                <path d="M86.5823223,274.490388 L80.7926002,343.454986 L145.427054,316.19956 L141.919208,275.316423 C177.347149,217.680842 220.18885,168.281319 279.762436,137.473194 L320.645574,140.979172 L348.314016,75.9335694 L279.349418,81.7232915 C197.601832,130.986388 130.678027,192.953982 86.5823223,274.490388 Z" stroke="#331816" stroke-width="18.68858" fill="#EFEFEF"></path>
                <path d="M231.465539,174.175697 C279.156926,221.863346 320.981968,283.901956 348.934477,342.742951 C289.661777,314.582998 228.060479,272.967268 180.367223,225.272143" stroke="#331816" stroke-width="18.68858" fill="#EFEFEF"></path>
            </g>
        </g>
    </g>
</svg>
