<?xml version="1.0" encoding="utf-8"?>
<!-- Generator: Adobe Illustrator 16.0.0, SVG Export Plug-In . SVG Version: 6.00 Build 0)  -->
<!DOCTYPE svg PUBLIC "-//W3C//DTD SVG 1.1//EN" "http://www.w3.org/Graphics/SVG/1.1/DTD/svg11.dtd">
<svg version="1.1" id="Layer_1" xmlns="http://www.w3.org/2000/svg" xmlns:xlink="http://www.w3.org/1999/xlink" x="0px" y="0px"
	 width="345.854px" height="587.932px" viewBox="130.846 100.319 345.854 587.932"
	 enable-background="new 130.846 100.319 345.854 587.932" xml:space="preserve">
<g transform="matrix(18.68858,0,0,18.68858,1981.7637,-10483.47706)">
	<path fill="#FFFFFF" stroke="#000000" d="M-99.013,594.928c0-26.534,18.453-26.466,18.453,0
		C-87.066,598.785-92.799,598.613-99.013,594.928z"/>
	<path d="M-83.427,587.562c0,5.636-2.848,10.205-6.361,10.205c-3.513,0-6.361-4.569-6.361-10.205s2.848-10.205,6.361-10.205
		C-86.275,577.357-83.427,581.926-83.427,587.562z"/>
	<path fill="#FFFFFF" stroke="#000000" d="M-89.787,566.354c-4.21,1.978-7.709,7.738-8.6,12.035c2.572,0,4.453,0.819,5.811,2.26
		l2.789-3.047l2.766,3.111c1.339-1.425,3.214-2.324,5.834-2.324C-82.244,574.146-85.49,568.446-89.787,566.354z"/>
	<path d="M-91.778,571.675c-1.573,0.178-2.809,3.232-3.62,5.249c2.272,1.096,3.718,2.198,4.646,3.861h1.991
		c0.966-1.654,2.412-2.683,4.585-3.861c-1.237-2.705-3.367-7.633-5.611-3.902C-90.504,571.977-91.163,571.605-91.778,571.675
		L-91.778,571.675z"/>
	<g transform="matrix(.49914,0,0,.49914,-331.89054,328.45734)">
		<path fill="#FFFFFF" stroke="#FFFFFF" d="M482.659,515.597c0,6.709,0.085,12.764,2.502,19.146
			c2.519-6.157,2.252-12.367,2.252-18.982"/>
		<path fill="#FFFFFF" d="M478.153,514.791h13.772v2.372c-4.531-1.2-9.257-1.455-13.772,0V514.791z"/>
		<path fill="#FFFFFF" d="M483.352,506.125h3.374c-0.896,2.999-0.997,5.999,0,8.998h-3.374
			C484.542,512.124,484.287,509.124,483.352,506.125z"/>
	</g>
	<path fill="#FFFFFF" d="M-90.965,575.583c0,0.312-0.461,0.565-1.03,0.565s-1.03-0.253-1.03-0.565c0-0.312,0.461-0.565,1.03-0.565
		S-90.965,575.271-90.965,575.583z"/>
	<path fill="#FFFFFF" d="M-86.554,575.583c0,0.312-0.461,0.565-1.03,0.565c-0.569,0-1.03-0.253-1.03-0.565
		c0-0.312,0.461-0.565,1.03-0.565C-87.015,575.019-86.554,575.271-86.554,575.583z"/>
</g>
</svg>
