<?xml version="1.0" encoding="utf-8"?>
<!-- Generator: Adobe Illustrator 16.0.0, SVG Export Plug-In . SVG Version: 6.00 Build 0)  -->
<!DOCTYPE svg PUBLIC "-//W3C//DTD SVG 1.1//EN" "http://www.w3.org/Graphics/SVG/1.1/DTD/svg11.dtd">
<svg version="1.1" id="Layer_1" xmlns="http://www.w3.org/2000/svg" xmlns:xlink="http://www.w3.org/1999/xlink" x="0px" y="0px"
	 width="550.697px" height="550.695px" viewBox="32.706 116.248 550.697 550.695"
	 enable-background="new 32.706 116.248 550.697 550.695" xml:space="preserve">
<g transform="matrix(18.68858,0,0,18.68858,-228.44873,-17252.09562)">
	<path stroke="#000000" d="M38.163,941.66c0.18,5.74-7.288,7.192-9.599,12.922c-2.187-5.729-9.456-7.527-9.627-12.922
		c-0.182-5.751,6.934-6.855,9.627-2.187C31.263,934.378,37.996,936.275,38.163,941.66z"/>
	<path d="M15.674,937.184l2.322,0.899l-1.254,3.237l-2.322-0.899L15.674,937.184z"/>
	<path d="M40.657,946.859l2.322,0.899l-1.254,3.237l-2.322-0.899L40.657,946.859z"/>
	<path d="M20.873,931.596l1.561,1.94l-2.704,2.177l-1.561-1.94L20.873,931.596z"/>
	<path d="M37.67,952.466l1.561,1.94l-2.704,2.177l-1.561-1.94L37.67,952.466z"/>
	<path d="M28.168,929.356l0.382,2.461l-3.43,0.533l-0.382-2.461L28.168,929.356z"/>
	<path d="M32.28,955.829l0.382,2.461l-3.43,0.533l-0.382-2.461L32.28,955.829z"/>
	<path d="M35.611,931.058l-0.899,2.322l-3.237-1.254l0.899-2.322L35.611,931.058z"/>
	<path d="M25.936,956.04l-0.899,2.322l-3.237-1.254l0.899-2.322L25.936,956.04z"/>
	<path d="M41.192,936.261l-1.94,1.561l-2.177-2.704l1.94-1.561L41.192,936.261z"/>
	<path d="M20.322,953.058l-1.94,1.561l-2.177-2.704l1.94-1.561L20.322,953.058z"/>
	<path d="M43.441,943.56l-2.461,0.382l-0.533-3.43l2.461-0.382L43.441,943.56z"/>
	<path d="M16.968,947.672l-2.461,0.382l-0.533-3.43l2.461-0.382L16.968,947.672z"/>
</g>
</svg>
