<?xml version="1.0" encoding="utf-8"?>
<!-- Generator: Adobe Illustrator 16.0.0, SVG Export Plug-In . SVG Version: 6.00 Build 0)  -->
<!DOCTYPE svg PUBLIC "-//W3C//DTD SVG 1.1//EN" "http://www.w3.org/Graphics/SVG/1.1/DTD/svg11.dtd">
<svg version="1.1" id="Layer_1" xmlns="http://www.w3.org/2000/svg" xmlns:xlink="http://www.w3.org/1999/xlink" x="0px" y="0px"
	 width="269.252px" height="561.04px" viewBox="169.962 114.978 269.252 561.04"
	 enable-background="new 169.962 114.978 269.252 561.04" xml:space="preserve">
<g transform="matrix(18.68858,0,0,18.68858,-11126.09,-25183.594)">
	<path fill="none" stroke="#000000" stroke-dasharray="1,1" d="M612.039,1353.727c1.888,0.245,3.363,2.3,3.363,4.78
		c0,1.373-0.47,2.6-1.195,3.474c3.927,0.739,5.38,6.436,4.224,12.005h-2.724l-0.723,9.699h-6.92l-0.639-9.699h-2.584
		c-1.02-5.424-0.094-11.396,4.196-12.061c-0.693-0.87-1.139-2.079-1.139-3.418c0-2.645,1.684-4.78,3.752-4.78
		C611.779,1353.727,611.913,1353.708,612.039,1353.727L612.039,1353.727z"/>
</g>
</svg>
