<?xml version="1.0" encoding="utf-8"?>
<!-- Generator: Adobe Illustrator 16.0.0, SVG Export Plug-In . SVG Version: 6.00 Build 0)  -->
<!DOCTYPE svg PUBLIC "-//W3C//DTD SVG 1.1//EN" "http://www.w3.org/Graphics/SVG/1.1/DTD/svg11.dtd">
<svg version="1.1" id="Layer_1" xmlns="http://www.w3.org/2000/svg" xmlns:xlink="http://www.w3.org/1999/xlink" x="0px" y="0px"
	 width="570.011px" height="568.849px" viewBox="22.979 114.395 570.011 568.849"
	 enable-background="new 22.979 114.395 570.011 568.849" xml:space="preserve">
<g transform="matrix(18.68858,0,0,18.68858,-7724.10095,-44230.57933)">
	<path fill="none" stroke="#000000" d="M442.757,2401.639l-22.309-2.007 M417.858,2396.889l-1.716-21.517"/>
	<path d="M445.036,2403.265c-7.852,0.452-3.661-12.469-11.639-16.583l4.146-4.146
		C443.862,2385.628,439.923,2398.968,445.036,2403.265L445.036,2403.265z"/>
	<path d="M414.547,2372.843c-0.448,7.783,12.359,3.629,16.438,11.536l4.109-4.11
		C432.029,2374.006,418.807,2377.911,414.547,2372.843z"/>
	<path d="M437.231,2376.434l7.586-3.596l-3.596,7.586l-0.758-3.232L437.231,2376.434z"/>
	<path fill="none" stroke="#000000" d="M419.736,2397.919l21.18-21.179"/>
</g>
</svg>
