<?xml version="1.0" encoding="utf-8"?>
<!-- Generator: Adobe Illustrator 16.0.0, SVG Export Plug-In . SVG Version: 6.00 Build 0)  -->
<!DOCTYPE svg PUBLIC "-//W3C//DTD SVG 1.1//EN" "http://www.w3.org/Graphics/SVG/1.1/DTD/svg11.dtd">
<svg version="1.1" id="Layer_1" xmlns="http://www.w3.org/2000/svg" xmlns:xlink="http://www.w3.org/1999/xlink" x="0px" y="0px"
	 width="519.187px" height="546.66px" viewBox="47.497 122.402 519.187 546.66"
	 enable-background="new 47.497 122.402 519.187 546.66" xml:space="preserve">
<g transform="matrix(18.68858,0,0,18.68858,-1596.03334,-40151.33514)">
	<path fill="#231F20" d="M87.943,2157.555c0.075,10.235,3.576,23.93,13.868,26.688c10.6-2.84,13.832-16.445,13.913-26.688
		c-3.919,0.861-10.833-0.745-13.983-2.563C98.182,2157.047,91.911,2158.438,87.943,2157.555L87.943,2157.555z"/>
	<path fill="none" stroke="#FFFFFF" d="M91.457,2161.318c0.057,8.042,2.719,18.362,10.544,20.529
		c8.059-2.232,10.517-12.48,10.579-20.529c-2.98,0.676-8.237-1.027-10.632-2.456C99.242,2160.477,94.473,2162.011,91.457,2161.318
		L91.457,2161.318z"/>
	<path fill="#231F20" d="M96.488,2175.328l-0.585,4.609l5.985,2.889l6.157-2.889l-0.688-4.609H96.488L96.488,2175.328z"/>
	<path fill="#231F20" d="M94.452,2159.102l-0.961,5.005h17.031l-1.073-5.005H94.452z"/>
	<path fill="#FFFFFF" d="M108.019,2158.978l2.257,9.344h-4.078c0.604,1.901,0.414,4.485-0.634,6.386l-1.109-3.192l-1.267,3.469
		l-1.267-3.198l-1.267,3.158l-1.227-3.429l-1.109,3.152c-0.929-1.692-1.525-4.159-0.634-6.346h-4.118l2.257-9.344
		C99.845,2157.583,103.955,2157.409,108.019,2158.978L108.019,2158.978z"/>
	<path fill="#FFFFFF" d="M103.159,2176.343l1.389,3.081l1.009-3.594c0.997,1.176,1.328,2.53,1.17,4.205
		c-3.111,2.419-6.2,2.744-9.524,0c0.015-1.543-0.041-2.829,1.084-4.244l0.926,3.633l1.471-3.042l1.237,3.796L103.159,2176.343z"/>
	<g transform="matrix(-1.20807,0,0,1.20807,878.27502,-407.15537)">
		<path fill="#231F20" d="M647.766,2130.383l-0.589-2.716c-1.476,0.315-2.688,0.981-3.365,2.362L647.766,2130.383z"/>
		<path fill="#231F20" d="M637.499,2130.383l0.589-2.716c1.405,0.42,2.625,1.078,3.365,2.362L637.499,2130.383z"/>
	</g>
	<path fill="none" stroke="#231F20" d="M103.406,2169.917l-1.476-1.949l-1.476,1.949"/>
</g>
</svg>
