<?xml version="1.0" encoding="utf-8"?>
<!-- Generator: Adobe Illustrator 16.0.0, SVG Export Plug-In . SVG Version: 6.00 Build 0)  -->
<!DOCTYPE svg PUBLIC "-//W3C//DTD SVG 1.1//EN" "http://www.w3.org/Graphics/SVG/1.1/DTD/svg11.dtd">
<svg version="1.1" id="Layer_1" xmlns="http://www.w3.org/2000/svg" xmlns:xlink="http://www.w3.org/1999/xlink" x="0px" y="0px"
	 width="411.105px" height="548.141px" viewBox="0 0 411.105 548.141" enable-background="new 0 0 411.105 548.141"
	 xml:space="preserve">
<path fill="#010101" d="M342.587,479.623V342.588c0-5.219-2.344-10.139-6.423-13.383l-68.92-55.135l68.92-55.135
	c4.079-3.279,6.423-8.163,6.423-13.382V68.518h34.26L411.105,0H0l34.259,68.518h34.259v137.035c0,5.219,2.376,10.104,6.423,13.382
	l68.951,55.135l-68.951,55.135c-4.047,3.244-6.423,8.164-6.423,13.383v137.035H34.259L0,548.141h411.105l-34.258-68.518H342.587z
	 M274.07,479.623V376.847l-68.517-68.518l-68.518,68.518v102.776h-34.259V350.82L182,287.453c4.082-3.276,6.423-8.164,6.423-13.383
	s-2.342-10.104-6.423-13.382l-79.224-63.366V68.518H308.33v128.805l-79.224,63.366c-4.047,3.279-6.424,8.164-6.424,13.382
	s2.377,10.106,6.424,13.383l79.224,63.367v128.803H274.07z M274.07,171.294l-68.517,68.518l-68.518-68.518H274.07z"/>
</svg>
