<?xml version="1.0" encoding="utf-8"?>
<!-- Generator: Adobe Illustrator 16.0.0, SVG Export Plug-In . SVG Version: 6.00 Build 0)  -->
<!DOCTYPE svg PUBLIC "-//W3C//DTD SVG 1.1//EN" "http://www.w3.org/Graphics/SVG/1.1/DTD/svg11.dtd">
<svg version="1.1" id="Layer_1" xmlns="http://www.w3.org/2000/svg" xmlns:xlink="http://www.w3.org/1999/xlink" x="0px" y="0px"
	 width="562.285px" height="564.619px" viewBox="23.594 112.389 562.285 564.619"
	 enable-background="new 23.594 112.389 562.285 564.619" xml:space="preserve">
<g transform="matrix(18.68858,0,0,18.68858,-8398.4201,-36767.17133)">
	<g transform="matrix(-1,0,0,1,999.02638,291.22615)">
		<path d="M533.112,1682.172c2.394,0.378,4.742,1.499,6.537,3.175c-3.566-1.671-8.281-1.743-11.953-0.224
			c0.663-0.622,1.393-1.121,2.166-1.494c-9.773,2.396-13.303,9.884-9.264,19.274c-1.052-1.713-1.861-3.555-2.278-5.416
			c-0.358,5.066,2.392,9.17,7.523,13.462l7.717,0.06c4.924,0.038,10.985-1.212,13.635-5.923l-2.669,1.169
			c2.977-3.535,3.088-8.329,2.481-12.952l1.369,3.287C548.367,1686.846,540.319,1681.753,533.112,1682.172L533.112,1682.172z"/>
		<path fill="#FFFFFF" d="M523.755,1691.87c0.219-1.247,0.552-2.458,0.999-3.589c-5.487,6.319-3.471,15.512,3.171,16.771
			l-0.387,7.308c11.969-0.913,17.691-7.857,18.013-15.644C545.981,1683.17,528.879,1682.792,523.755,1691.87z"/>
		<path d="M530.014,1705.68c3.745,2.162,0.401,8.093-3.404,5.896c-1.628-0.94-5.363-4.856-4.423-6.484
			S528.386,1704.74,530.014,1705.68L530.014,1705.68z"/>
	</g>
	<path d="M463.974,1983.621l-1.269,6.432c-0.189,0.244-0.361,0.438-0.578,0.636l-1.643-3.14l-1.452,0.763l2.006,3.898
		c0.286,0.734,0.641,1.323,0.97,1.824c1.795,2.738,4.128,2.255,6.095,0.611l5.582-3.099l-0.813-1.439l-4.23,2.363
		c-0.097-0.202-0.209-0.419-0.323-0.608l4.338-4.155l-1.122-1.196l-4.251,4.078c-0.151-0.148-0.271-0.29-0.433-0.418l2.883-4.995
		l-1.454-0.84l-2.933,5.008c-0.242-0.084-0.494-0.141-0.742-0.176l1.001-5.238L463.974,1983.621L463.974,1983.621z"/>
</g>
</svg>
