<?xml version="1.0" encoding="utf-8"?>
<!-- Generator: Adobe Illustrator 16.0.0, SVG Export Plug-In . SVG Version: 6.00 Build 0)  -->
<!DOCTYPE svg PUBLIC "-//W3C//DTD SVG 1.1//EN" "http://www.w3.org/Graphics/SVG/1.1/DTD/svg11.dtd">
<svg version="1.1" id="Layer_1" xmlns="http://www.w3.org/2000/svg" xmlns:xlink="http://www.w3.org/1999/xlink" x="0px" y="0px"
	 width="612px" height="612px" viewBox="0 90 612 612" enable-background="new 0 90 612 612" xml:space="preserve">
<path d="M0,90h612v612H0V90z" fill="#331816"/>
<g transform="matrix(18.68858,0,0,18.68858,-839.37199,-9761.28811)">
	<path fill="#70593F" stroke="#331816" stroke-width="0.927" d="M69.309,547.395c0,6.531-3.594,11.832-8.021,11.832
		c-4.428,0-8.021-5.301-8.021-11.832c0-5.026,3.594-9.455,8.021-9.455C65.715,537.94,69.309,542.21,69.309,547.395z"/>
	<path stroke="#70593F" d="M67.733,544.546c0,2.861-2.872,5.182-6.411,5.182c-3.539,0-6.411-2.322-6.411-5.182
		c0-2.861,2.872-5.897,6.411-5.897C64.861,538.649,67.733,541.685,67.733,544.546z" fill='#331816'/>
	<path fill="#331816" stroke="#70593F" d="M54.981,544.53h3.212l0.621-2.258l1.119,4.072l0.845-3.074l0.351,1.278h6.505"/>
</g>
<path fill="#FFFFFF" d="M19.438,109.949v17.455l168.235,158.46l-61.429-175.916H19.438L19.438,109.949z M166.724,109.949
	l81.669,148.686l-3.495-148.686H166.724L166.724,109.949z M286.797,109.949l27.229,141.716L356.6,109.949H286.797z M398.499,109.949
	L378.95,265.624l108.207-155.675H398.499z M525.544,109.949l-88.658,189.184L592.562,180.46v-70.512L525.544,109.949
	L525.544,109.949z M19.438,174.182v100.526l118.673,55.841L19.438,174.182z M592.562,229.332L480.86,348.004l111.701-39.097V229.332
	z"/>
</svg>
