<?xml version="1.0" encoding="utf-8"?>
<!-- Generator: Adobe Illustrator 16.0.0, SVG Export Plug-In . SVG Version: 6.00 Build 0)  -->
<!DOCTYPE svg PUBLIC "-//W3C//DTD SVG 1.1//EN" "http://www.w3.org/Graphics/SVG/1.1/DTD/svg11.dtd">
<svg version="1.1" id="Layer_1" xmlns="http://www.w3.org/2000/svg" xmlns:xlink="http://www.w3.org/1999/xlink" x="0px" y="0px"
	 width="612px" height="612px" viewBox="0 90 612 612" enable-background="new 0 90 612 612" xml:space="preserve">
<path d="M0,90h612v612H0V90z"/>
<g transform="matrix(18.68858,0,0,18.68858,-839.96191,-6690.50542)">
	<path fill="#943636" d="M53.941,378.591l0.834,2.092l-3.239,1.292l-0.834-2.092L53.941,378.591z"/>
	<path fill="#943636" d="M54.407,380.947l0.834,2.092l-3.239,1.292l-0.834-2.092L54.407,380.947z"/>
	<path fill="#943636" stroke="#000000" d="M49.737,378.527c0.814-2.305,0.53-4.305-0.59-4.326c-0.259-0.005-0.565,0.096-0.909,0.32
		c0.053,2.136-1.126,4.014-2.728,5.481v6.317l2.271,0.268h2.194l2.712-0.268c0.686-0.227,1.45-0.497,2.409-0.934
		c0.788-0.315,0.335-1.773-0.197-2.015"/>
	<path fill="#943636" stroke="#000000" d="M48.798,386.319"/>
	<path fill="#943636" stroke="#000000" d="M48.313,379.086l7.972-3.178c1.371-0.546,2.187,1.344,0.762,1.912l-5.75,2.292"/>
	<path fill="#943636" stroke="#000000" d="M54.656,381.196c0.532,0.457,0.911,1.852,0.316,2.09l-2.475,0.987"/>
	<path fill="#943636" stroke="#000000" d="M54.393,379.069c0.468,0.463,0.676,1.224,0.441,1.937l-2.636,1.051"/>
</g>
<g transform="matrix(18.68858,0,0,18.68858,-3633.77597,-28002.40787)">
	<path fill="#FFFFFF" d="M211.099,1526.078l-0.952,1.57c2.468,2.02,7.917,2.287,11.066-0.025l-1.004-1.287L211.099,1526.078z"/>
	<g transform="matrix(.8808,0,0,.8808,10.5075,182.27025)">
		<path fill="#FFFFFF" stroke="#000000" stroke-width="1.1353" d="M243.247,1518.528c-4.718,2.212-5.434,4.042-3.617,5.738
			c-3.198,3.527-10.691,3.156-13.47,0.034c1.533-1.439,1.085-3.686-3.366-5.773c0-6.145,2.812-12.912,10.226-12.912
			C240.499,1505.616,243.247,1512.71,243.247,1518.528L243.247,1518.528z"/>
		<path d="M232.808,1519.947c-0.729,1.295-1.188,2.59-1.571,3.885c0.986,0.659,2.369,0.575,3.142,0
			C234.096,1522.537,233.526,1521.243,232.808,1519.947L232.808,1519.947z"/>
	</g>
	<path d="M209.085,1519.362c1.625,1.1,3.362,2.047,5.421,0.995l0.058-1.756c-2.233,0.093-3.431-0.815-3.834-2.404
		C209.074,1516.502,208.831,1517.764,209.085,1519.362L209.085,1519.362z"/>
	<path d="M222.136,1519.362c-1.625,1.1-3.362,2.047-5.421,0.995l-0.058-1.756c2.233,0.093,3.431-0.815,3.834-2.404
		C222.147,1516.502,222.389,1517.764,222.136,1519.362L222.136,1519.362z"/>
	<path fill="none" stroke="#000000" d="M212.47,1526.902l-0.745,1.97"/>
	<path fill="none" stroke="#000000" d="M214.575,1527.339l-0.238,1.998"/>
	<path fill="none" stroke="#000000" d="M218.779,1526.902l0.731,1.943"/>
	<path fill="none" stroke="#000000" d="M216.673,1527.339l0.238,1.998"/>
	<path d="M219.412,1515.502c-2.654,0.548-5.205,0.557-7.619-0.01C212.934,1517.468,218.059,1517.466,219.412,1515.502z"/>
	<path fill="none" stroke="#000000" d="M220.562,1526.065l0.915,1.438"/>
	<path fill="none" stroke="#000000" d="M210.631,1526.065l-0.915,1.438"/>
</g>
</svg>
