<?xml version="1.0" encoding="utf-8"?>
<!-- Generator: Adobe Illustrator 16.0.0, SVG Export Plug-In . SVG Version: 6.00 Build 0)  -->
<!DOCTYPE svg PUBLIC "-//W3C//DTD SVG 1.1//EN" "http://www.w3.org/Graphics/SVG/1.1/DTD/svg11.dtd">
<svg version="1.1" id="Layer_1" xmlns="http://www.w3.org/2000/svg" xmlns:xlink="http://www.w3.org/1999/xlink" x="0px" y="0px"
	 width="612px" height="792px" viewBox="0 0 612 792" enable-background="new 0 0 612 792" xml:space="preserve">
<path d="M0,90h612v612H0V90z"/>
<g transform="matrix(18.68858,0,0,18.68858,-839.96191,-6620.50542)">
	<path fill="#FFFFFF" d="M58.385,379.557l1.267,3.179l-4.923,1.963l-1.267-3.179L58.385,379.557z"/>
	<path fill="#FFFFFF" d="M59.093,383.138l1.267,3.179l-4.923,1.963L54.17,385.1L59.093,383.138z"/>
	<path fill="#FFFFFF" stroke="#000000" d="M51.996,379.46c1.237-3.503,0.806-6.542-0.896-6.574
		c-0.393-0.007-0.858,0.146-1.382,0.486c0.081,3.246-1.711,6.1-4.146,8.33v9.6h10.907c1.042-0.345,2.204-0.756,3.661-1.419
		c1.198-0.478,0.509-2.694-0.299-3.063"/>
	<path fill="#FFFFFF" stroke="#000000" d="M49.831,380.31l12.116-4.83c2.083-0.83,3.324,2.042,1.158,2.906l-8.738,3.483"/>
	<path fill="#FFFFFF" stroke="#000000" d="M59.472,383.517c0.808,0.694,1.385,2.815,0.48,3.176l-3.762,1.5"/>
	<path fill="#FFFFFF" stroke="#000000" d="M59.072,380.284c0.711,0.704,1.027,1.86,0.67,2.943l-4.006,1.597"/>
</g>
</svg>
