<?xml version="1.0" encoding="utf-8"?>
<!-- Generator: Adobe Illustrator 16.0.0, SVG Export Plug-In . SVG Version: 6.00 Build 0)  -->
<!DOCTYPE svg PUBLIC "-//W3C//DTD SVG 1.1//EN" "http://www.w3.org/Graphics/SVG/1.1/DTD/svg11.dtd">
<svg version="1.1" id="Layer_1" xmlns="http://www.w3.org/2000/svg" xmlns:xlink="http://www.w3.org/1999/xlink" x="0px" y="0px"
	 width="612px" height="612px" viewBox="0 90 612 612" enable-background="new 0 90 612 612" xml:space="preserve">
<path d="M0,90h612v612H0V90z" fill='#331816'/>
<g transform="matrix(18.68858,0,0,18.68858,-13164.59295,-28581.19205)">
	<path fill="#254A79" stroke="#FFFFFF" stroke-width="1px"
    d="M709.333,1536.951c-0.132,2.275-0.178,4.286-0.164,6.118
		c0.462-0.401,1.072-0.654,1.734-0.654c1.476,0,2.683,1.207,2.683,2.683c0,1.476-1.207,2.65-2.683,2.65
		c-0.596,0-1.163-0.198-1.603-0.524c1.255,15.559,8.962,11.331,11.909,16.883c2.948-5.551,10.621-1.324,11.877-16.883
		c-0.44,0.325-0.975,0.524-1.57,0.524c-1.476,0-2.683-1.174-2.683-2.65s1.207-2.683,2.683-2.683c0.679,0,1.268,0.268,1.734,0.687
		c0.016-1.841-0.03-3.863-0.164-6.151c-3.414,0.816-7.669,1.206-11.877,1.243C717.001,1538.158,712.747,1537.767,709.333,1536.951z"
		/>
	<g transform="matrix(1.1485,0,0,-1.1485,-106.04982,3310.14958)">
		<path fill="none" stroke="#FFFFFF" stroke-width="0.8707" d="M723.677,1532.151l3.45-0.017l-5.259,3.981"/>
		<path fill="none" stroke="#FFFFFF" stroke-width="0.8707" d="M716.398,1534.255l-2.954-2.101l6.596,0.011"/>
		<path fill="none" stroke="#FFFFFF" stroke-width="0.8707" d="M718.987,1538.083l-2.852,2.077l2.169-6.452"/>
		<path fill="none" stroke="#FFFFFF" stroke-width="0.8707" d="M723.561,1536.978l0.949,3.261l-5.282-3.95"/>
		<path fill="none" stroke="#FFFFFF" stroke-width="0.8707" d="M719.27,1530.583l1.095-3.38l1.993,6.255"/>
	</g>
</g>
</svg>
