<?xml version="1.0" encoding="utf-8"?>
<!-- Generator: Adobe Illustrator 16.0.0, SVG Export Plug-In . SVG Version: 6.00 Build 0)  -->
<!DOCTYPE svg PUBLIC "-//W3C//DTD SVG 1.1//EN" "http://www.w3.org/Graphics/SVG/1.1/DTD/svg11.dtd">
<svg version="1.1" id="Layer_1" xmlns="http://www.w3.org/2000/svg" xmlns:xlink="http://www.w3.org/1999/xlink" x="0px" y="0px"
	 width="612px" height="612px" viewBox="0 90 612 612" enable-background="new 0 90 612 612" xml:space="preserve">
<path d="M0,90h612v612H0V90z" fill='#331816'/>
<g transform="matrix(18.68858,0,0,18.68858,-229.01198,-29261.34983)">
	<path fill="#994745" d="M13.655,1581.97l7.126,7.126l8.378-2.216l-7.126-7.126L13.655,1581.97z"/>
	<path fill="#EFEFEF" stroke="#331816" d="M17.953,1573.889l-2.011,2.011l26.813,26.851h1.601v-2.421L17.953,1573.889
		L17.953,1573.889z"/>
	<path fill="#994745" d="M23.954,1571.685l7.126,7.126l-2.215,8.379l-7.126-7.126L23.954,1571.685z"/>
	<path fill="#994745" d="M13.634,1597.254l4.472,4.472l5.258-1.39l-4.472-4.472L13.634,1597.254z"/>
	<path fill="#EFEFEF" stroke="#331816" d="M16.724,1591.914l-1.825,1.825l9.012,9.012h3.612L16.724,1591.914z"/>
	<path fill="#994745" d="M20.107,1590.781l4.472,4.472l-1.39,5.258l-4.472-4.472L20.107,1590.781z"/>
	<path fill="#994745" d="M32.637,1582.204l4.472,4.472l5.258-1.391l-4.472-4.472L32.637,1582.204z"/>
	<path fill="#EFEFEF" stroke="#331816" d="M35.717,1576.868l-1.788,1.825l10.427,10.427v-3.612L35.717,1576.868z"/>
	<path fill="#994745" d="M39.11,1575.731l4.472,4.472l-1.39,5.258l-4.472-4.472L39.11,1575.731z"/>
	<path fill="#994745" d="M28.039,1598.233l2.865,2.865l3.369-0.891l-2.865-2.865L28.039,1598.233z"/>
	<path fill="#994745" d="M32.189,1594.082l2.865,2.865l-0.891,3.369l-2.865-2.865L32.189,1594.082z"/>
	<path fill="#331816" stroke="#EFEFEF" d="M29.571,1595.626l7.092,7.092"/>
	<path d="M14.703,1583.041l3.284-0.064l-2.833,1.127" fill='#331816'/>
	<path d="M17.822,1586.424l2.412,0.15l-1.63,1.127" fill='#331816'/>
	<path d="M18.323,1587.076l2.412,0.15l-1.63,1.127" fill='#331816'/>
	<path d="M28.861,1576.021l0.024,4.066l1.384-3.091" fill='#331816'/>
	<path d="M26.377,1573.328l0.206,3.025l1.098-1.79" fill='#331816'/>
	<path d="M34.034,1583.829l2.284,0.156l-1.352,0.829" fill='#331816'/>
	<path d="M16.961,1600.707h2.307l-1.171,1.099" fill='#331816'/>
	<path d="M33.012,1594.637l0.269,1.578l0.715-0.646" fill='#331816'/>
	<path fill="#331816" stroke="#331816" d="M30.482,1602.798h8.538"/>
	<path d="M22.759,1593.345l0.156,2.284l0.829-1.352" fill='#331816'/>
</g>
</svg>
