<?xml version="1.0" encoding="utf-8"?>
<!-- Generator: Adobe Illustrator 16.0.0, SVG Export Plug-In . SVG Version: 6.00 Build 0)  -->
<!DOCTYPE svg PUBLIC "-//W3C//DTD SVG 1.1//EN" "http://www.w3.org/Graphics/SVG/1.1/DTD/svg11.dtd">
<svg version="1.1" id="Layer_1" xmlns="http://www.w3.org/2000/svg" xmlns:xlink="http://www.w3.org/1999/xlink" x="0px" y="0px"
	 width="612px" height="792px" viewBox="0 0 612 792" enable-background="new 0 0 612 792" xml:space="preserve">
<path d="M0,90h612v612H0V90z"/>
<g transform="matrix(18.68858,0,0,18.68858,-3633.77597,-27902.40787)">
	<path fill="#FFFFFF" d="M205.027,1520.129l-1.165,1.921c3.02,2.471,9.687,2.798,13.54-0.031l-1.228-1.575L205.027,1520.129z"/>
	<g transform="matrix(.8808,0,0,.8808,10.5075,182.27025)">
		<path fill="#FFFFFF" stroke="#331816" stroke-width="1.1353" d="M239.82,1510.179c-5.773,2.706-6.648,4.945-4.425,7.021
			c-3.913,4.315-13.081,3.861-16.481,0.042c1.876-1.761,1.327-4.51-4.118-7.063c0-7.519,3.44-15.798,12.512-15.798
			C236.457,1494.38,239.82,1503.06,239.82,1510.179L239.82,1510.179z"/>
		<path d="M227.047,1511.915c-0.892,1.584-1.454,3.169-1.922,4.753c1.207,0.806,2.899,0.704,3.844,0
			C228.623,1515.084,227.926,1513.5,227.047,1511.915L227.047,1511.915z"/>
	</g>
	<path d="M202.563,1511.912c1.988,1.346,4.114,2.505,6.633,1.218l0.071-2.148c-2.732,0.114-4.198-0.997-4.691-2.941
		C202.549,1508.413,202.252,1509.957,202.563,1511.912L202.563,1511.912z"/>
	<path d="M218.531,1511.912c-1.988,1.346-4.114,2.505-6.633,1.218l-0.071-2.148c2.732,0.114,4.198-0.997,4.691-2.941
		C218.544,1508.413,218.841,1509.957,218.531,1511.912L218.531,1511.912z"/>
	<path fill="none" stroke="#331816" d="M206.704,1521.138l-0.912,2.41"/>
	<path fill="none" stroke="#331816" d="M209.28,1521.672l-0.291,2.445"/>
	<path fill="none" stroke="#331816" d="M214.423,1521.138l0.894,2.378"/>
	<path fill="none" stroke="#331816" d="M211.847,1521.672l0.291,2.445"/>
	<path d="M215.198,1507.189c-3.247,0.671-6.368,0.682-9.322-0.013C207.272,1509.595,213.543,1509.593,215.198,1507.189z"/>
	<path fill="none" stroke="#331816" d="M216.605,1520.114l1.12,1.759"/>
	<path fill="none" stroke="#331816" d="M204.454,1520.114l-1.12,1.759"/>
</g>
</svg>
