<?xml version="1.0" encoding="utf-8"?>
<!-- Generator: Adobe Illustrator 16.0.0, SVG Export Plug-In . SVG Version: 6.00 Build 0)  -->
<!DOCTYPE svg PUBLIC "-//W3C//DTD SVG 1.1//EN" "http://www.w3.org/Graphics/SVG/1.1/DTD/svg11.dtd">
<svg version="1.1" id="Layer_1" xmlns="http://www.w3.org/2000/svg" xmlns:xlink="http://www.w3.org/1999/xlink" x="0px" y="0px"
	 width="612px" height="612px" viewBox="0 90 612 612" enable-background="new 0 90 612 612" xml:space="preserve">
<path d="M0,90h612v612H0V90z"/>
<g transform="matrix(18.68858,0,0,18.68858,-4644.05555,-5365.36648)">
	<path fill="#FFFFFF" d="M249.547,293.03v0.934l9.002,8.479l-3.287-9.413H249.547L249.547,293.03z M257.428,293.03l4.37,7.956
		l-0.187-7.956H257.428L257.428,293.03z M263.853,293.03l1.457,7.583l2.278-7.583H263.853z M269.83,293.03l-1.046,8.33l5.79-8.33
		H269.83z M276.628,293.03l-4.744,10.123l8.33-6.35v-3.773L276.628,293.03L276.628,293.03z M249.547,296.467v5.379l6.35,2.988
		L249.547,296.467z M280.214,299.418l-5.977,6.35l5.977-2.092V299.418z"/>

	<path fill="#563F24" d="M269.378,307.165c0.935,1.451,2.244,2.136,2.923,1.531c0.679-0.605,0.472-2.272-0.463-3.722
		c-0.935-1.451-2.244-2.136-2.923-1.531C268.235,304.047,268.443,305.714,269.378,307.165z"/>
	<path fill="#563F24" d="M260.394,307.165c-0.935,1.451-2.244,2.136-2.923,1.531c-0.679-0.605-0.472-2.272,0.463-3.722
		c0.935-1.451,2.244-2.136,2.923-1.531C261.537,304.047,261.329,305.714,260.394,307.165z"/>
	<path fill="#563F24" stroke="#000000" stroke-width="0.4759" d="M269.738,309.488c0,3.772-2.15,6.83-4.802,6.83
		c-2.652,0-4.802-3.058-4.802-6.83c0-3.772,2.15-6.83,4.802-6.83C267.588,302.659,269.738,305.716,269.738,309.488z"/>
	<path fill="#563F24" d="M264.749,314.583c-1.769-0.002-3.557,1.29-5.528,3.922l1.083,4.893h9.226l0.859-4.893
		C268.296,315.88,266.518,314.585,264.749,314.583z"/>
	<path fill="#563F24" d="M270.956,306.207c3.018,0.967,9.043,4.798,9.043,4.798l-9.736,8.265l-3.357-3.409l8.425-4.656l-3.622-2.386
		"/>
	<path fill="#563F24" d="M258.893,306.207c-3.018,0.967-9.043,4.798-9.043,4.798l9.736,8.265l3.357-3.409l-8.425-4.656l3.622-2.386"
		/>
</g>
</svg>
